<svg aria-hidden="true" style="width:0;height:0;position:absolute;overflow:hidden" xmlns="http://www.w3.org/2000/svg"><defs><symbol id="burger" viewBox="0 0 46 32"><path fill="none" stroke="#d41443" style="stroke:var(--color1,#d41443)" stroke-width="2.286" d="M0 2.286h45.714M0 16h45.714M0 29.714h45.714"/></symbol><symbol id="icon-cup" viewBox="0 0 21 32"><path fill="#ffa5ba" style="fill:var(--color1,#ffa5ba)" d="M2.333.144c-.349.188-.552.563-.552 1.006.006.813.209 1.556.614 2.2l.178.294-.338.381c-.381.425-.473.581-.644 1.088-.141.412-.154 1.162-.031 1.581.429 1.437 1.854 2.269 3.247 1.9.473-.125.762-.282 1.203-.657l.375-.312.35.175c.196.1.528.243.742.324l.381.138v.7c0 1.106.227 1.763.81 2.356s1.498.9 2.291.762c.564-.1 1.117-.381 1.491-.762.584-.594.811-1.251.811-2.356v-.7l.387-.138a9.56 9.56 0 0 0 .737-.325l.349-.175.374.312c.442.375.731.531 1.203.657 1.394.369 2.819-.463 3.248-1.9.123-.419.111-1.169-.031-1.581-.172-.507-.264-.663-.644-1.088l-.337-.381.178-.294c.405-.643.608-1.388.614-2.2 0-.444-.204-.819-.553-1.006l-.264-.144H2.596l-.264.144zm14.736 1.955c0 .019-.179.313-.399.662-.651 1.032-.626 1.256.239 2.17.314.331.602.662.645.737.233.463-.234 1.038-.749.919-.124-.026-.394-.243-.787-.631-.786-.775-1.056-.863-1.658-.518-.694.399-1.578.806-2.008.924-.608.175-.817.307-.976.637-.129.256-.141.363-.141 1.363 0 1.231-.05 1.431-.399 1.6-.252.125-.301.125-.553 0-.35-.169-.399-.369-.399-1.6 0-1-.013-1.107-.135-1.363-.166-.324-.374-.462-.982-.637-.528-.15-1.308-.493-1.738-.774-.405-.262-.762-.363-1.043-.313-.185.038-.369.181-.86.662-.405.394-.694.625-.817.65-.509.119-.976-.463-.742-.919.043-.075.332-.406.644-.737.865-.913.89-1.137.239-2.169-.221-.349-.399-.643-.399-.662 0-.025 2.929-.037 6.508-.037s6.508.013 6.508.037zM.485 13.206c-.314.212-.485.512-.485.844 0 .225 3.119 16.925 3.229 17.275.055.194.282.425.522.55.227.125.387.125 6.809.125s6.582 0 6.809-.125c.239-.125.467-.356.522-.55.111-.35 3.229-17.05 3.229-17.275 0-.331-.172-.631-.485-.844l-.209-.144H.694l-.209.144zm18.21 2.275c-.061.5-.418 1.587-.682 2.081-1.283 2.375-3.715 3.819-6.729 3.987-2.278.132-4.205-.331-5.82-1.393a7.057 7.057 0 0 1-2.247-2.402l-.018-.035c-.307-.544-.712-1.713-.774-2.238l-.043-.356h16.356l-.043.356zM4.39 21.919c2.634 1.775 6.569 2.244 9.885 1.169a10.708 10.708 0 0 0 3.18-1.687c.276-.219.294-.219.264-.082-.019.081-.381 1.994-.804 4.244s-.78 4.156-.798 4.232l-.031.143H5.034l-.031-.143c-.018-.075-.374-1.981-.798-4.232s-.786-4.163-.804-4.243c-.031-.138-.013-.138.264.081.16.125.491.356.724.518z"/></symbol><symbol id="icon-cup-apple" viewBox="0 0 32 32"><path fill="#ffa5ba" style="fill:var(--color1,#ffa5ba)" d="M29.626 21.411c-1.292-.458-2.381-.344-3.242.018.145-.877.47-1.832 1.169-2.481a1.065 1.065 0 1 0-1.448-1.561c-1.229 1.14-1.706 2.749-1.874 4.081a3.929 3.929 0 0 0-1.035-.308l-.023-.003 1.89-9.83a1.064 1.064 0 0 0-1.045-1.266h-.205c.094-.5.141-.997.138-1.47-.016-1.994-.903-3.495-2.374-4.017-1.409-.5-2.589-.35-3.507.066.146-.976.495-2.063 1.282-2.794A1.065 1.065 0 1 0 17.904.285c-1.32 1.226-1.815 2.966-1.981 4.387-.735-.348-1.644-.526-2.709-.33-1.094-1.571-2.612-2.295-4.09-1.941-1.451.348-2.358 1.115-2.9 1.962-.41-.899-.712-2.001-.452-3.036A1.065 1.065 0 0 0 3.708.799l-.002.007c-.439 1.746.095 3.475.73 4.758-1.016.138-2.118.65-3.049 1.866-.578.755-.773 1.698-.596 2.7a1.066 1.066 0 0 0-.672 1.204l-.001-.007 3.809 19.809c.096.502.535.864 1.046.864H20.21c.51 0 .949-.362 1.046-.864l.037-.195c.287.198.595.364.927.486 1.267.472 2.447.278 3.044.118.316.084.795.179 1.364.179.506 0 1.084-.075 1.68-.297 2.36-.879 3.615-3.839 3.596-6.178-.015-1.904-.865-3.34-2.275-3.839zm-6.951-9.22c-.491 4.705-4.452 7.909-9.971 7.909s-9.481-3.204-9.971-7.909h19.942zm-6.643-4.676a1.048 1.048 0 0 0 1.862 0 2.66 2.66 0 0 1 .76-.771l.01-.006c.629-.408 1.35-.46 2.203-.157.851.301.952 1.518.956 2.027a5.74 5.74 0 0 1-.19 1.453h-7.126c.236-1.19.094-2.492-.289-3.669.392.022.751.149 1.055.351l-.008-.005c.31.205.567.465.763.767l.006.01zM3.077 8.724c.55-.719 1.183-1.069 1.933-1.069h.002c.57 0 1.016.207 1.066.232.341.189.749.172 1.078-.037.332-.211.51-.592.481-.983-.006-.077-.115-1.894 1.983-2.397.877-.211 1.626.754 1.906 1.178.808 1.221 1.222 3.108.777 4.413H2.955c-.141-.443-.179-.943.122-1.336zM5.852 29.87 3.741 18.893c.138.132.28.262.428.388 2.208 1.901 5.239 2.948 8.535 2.948s6.328-1.047 8.535-2.948l.152-.134-.431 2.243-.061.02c-1.411.5-2.261 1.935-2.276 3.839-.01 1.165.297 2.483.898 3.622l-.192.998H5.852zm21.71-.438c-.943.351-1.881.017-1.916.004a1.034 1.034 0 0 0-.775.003l.007-.003c-.01.004-.96.352-1.917-.004-1.338-.499-2.223-2.556-2.21-4.166.004-.465.095-1.578.858-1.849.279-.107.601-.17.937-.175h.002c1.107 0 1.658.812 1.782 1.024a1.046 1.046 0 0 0 1.862 0c.156-.265.977-1.468 2.721-.849.763.271.854 1.383.858 1.85.013 1.609-.872 3.667-2.21 4.165z"/></symbol><symbol id="icon-lollipop" viewBox="0 0 28 32"><path fill="#ffa5ba" style="fill:var(--color1,#ffa5ba);stroke:var(--color1,#ffa5ba)" stroke="#ffa5ba" stroke-width=".308" d="M.666 11.161c.588 2.695 1.895 5.088 3.953 7.162 1.839 1.86 3.455 2.991 6.008 4.164l1.238.582v8.47h1.73v-7.902l.159.047h.001c.23.066.567.066.796 0h.001l.159-.047v7.902h1.73v-8.481l1.179-.536c2.469-1.138 4.263-2.372 6.008-4.142 2.786-2.829 4.217-6.052 4.217-9.561.012-3.85-2.01-7-5.214-8.076-.689-.239-1.054-.274-2.316-.262M.666 11.161 14.28 2.856l-.097-.073M.666 11.161C.532 10.546.464 9.706.461 8.885s.06-1.636.194-2.201c.722-3.188 2.943-5.549 5.82-6.152M.666 11.161 6.475.532m13.842-.05zm0 0c-.658.006-1.07.02-1.444.073-.376.054-.709.146-1.208.303h-.002c-1.188.386-2.356.994-3.132 1.632l-.001.001-.346.291m-.001.001-.543-.401C11.967 1.151 10.255.552 8.244.471h-.001A15.34 15.34 0 0 0 7.183.47l.025-.001c-.313.01-.586.031-.733.063m7.708 2.251L6.475.532m6.684 3.701h-.001c-.238-.226-.669-.537-1.14-.833a9.88 9.88 0 0 0-1.335-.718 9.319 9.319 0 0 0-1.437-.408l-.064-.011c-1.975-.362-3.489.022-4.825 1.21l-.001.001a6.742 6.742 0 0 0-.796.843 2.988 2.988 0 0 0-.224.317l-.007.013c-.203-.019.188.05.58.117l.572.081c1.231.192 2.186.449 3.209.943 1.02.491 2.103 1.214 3.593 2.329l.001.001c.605.465 1.626 1.059 2.651 1.541l.002.001c.458.226.898.452 1.238.636.17.092.316.175.428.242.055.034.103.065.142.091a.576.576 0 0 1 .098.08c.128.137.234.274.318.447s.142.372.182.631c.081.512.098 1.281.098 2.57 0 1.17.003 1.785.033 2.135.015.175.036.271.061.332a.354.354 0 0 0 .096.134c.246.24.583.23.762.031l.004-.004c.049-.052.097-.135.125-.456.027-.32.033-.837.033-1.723 0-1.172.029-1.886.16-2.378.066-.25.16-.448.292-.622.13-.172.293-.314.487-.459l.002-.001a1.77 1.77 0 0 1 .647-.308c.271-.071.642-.124 1.24-.193 1.865-.207 2.942-.447 4.231-.937.404-.154.703-.269.927-.372.225-.103.357-.188.439-.273a.501.501 0 0 0 .134-.302c.02-.142.014-.324.002-.588V8.37a8.89 8.89 0 0 0-.255-1.706v-.001c-.709-2.682-2.922-4.56-5.317-4.56-1.787 0-3.967.839-5.314 2.06l-.001.001c-.22.197-.405.352-.572.459s-.327.175-.495.182a.843.843 0 0 1-.486-.149 3.572 3.572 0 0 1-.517-.425zM9.013 8.598l-.001-.001C7.78 7.683 6.435 7.013 5.25 6.719a13.097 13.097 0 0 0-1.743-.29l-.06-.005a6.762 6.762 0 0 0-.712-.039h-.003c-.079 0-.155.007-.23.02l.008-.001c-.049.095-.1.264-.148.496a8.718 8.718 0 0 0-.127.892c-.063.665-.078 1.407-.02 1.948.316 2.926 1.588 5.398 4.031 7.743h.001c1.927 1.865 4.326 3.319 7.044 4.236l.002.001.862.305.875-.305c2.542-.871 5.036-2.326 6.844-4.018 1.246-1.168 1.889-1.964 2.711-3.37v-.001c.255-.428.604-1.204.874-1.892.135-.343.249-.662.32-.9.026-.086.046-.158.058-.217l-.145.041c-.201.06-.473.151-.767.26h-.001c-1.188.433-2.967.816-4.401.944h-.001l-.063.005c-.323.026-.548.045-.716.089-.166.043-.252.106-.311.215-.067.126-.107.329-.127.677-.018.322-.018.746-.018 1.313v.121c0 1.098-.014 1.746-.096 2.184a1.762 1.762 0 0 1-.194.563l.005-.009a1.969 1.969 0 0 1-.327.417c-.235.246-.47.425-.734.54s-.546.164-.871.164c-.5 0-.927-.099-1.284-.317s-.63-.546-.835-.983c-.105-.223-.164-.436-.198-.864-.033-.423-.042-1.067-.042-2.156 0-.906-.009-1.537-.031-1.957a4.5 4.5 0 0 0-.046-.495l.003.025a.828.828 0 0 0-.027-.123l.002.006a.149.149 0 0 0-.011-.028v.001a1.009 1.009 0 0 0-.088-.066l-.003-.002a3.038 3.038 0 0 0-.208-.122l-.017-.008a7.574 7.574 0 0 0-.598-.288l-.057-.022c-1.006-.42-2.332-1.164-3.137-1.761-.295-.219-.959-.703-1.481-1.084h-.001zM2.49 6.407c-.002.001-.002.001 0 0zm.037-.037-.001.001.001-.002z"/></symbol><symbol id="icon-github" viewBox="0 0 32 32"><path fill="#fea5bb" style="fill:var(--color2,#fea5bb)" d="M32 16c0 8.837-7.163 16-16 16S0 24.837 0 16 7.163 0 16 0s16 7.163 16 16z"/><path fill="#fff" style="fill:var(--color3,#fff)" d="M16 6.588c-5.17 0-9.412 4.242-9.412 9.412 0 4.411 3.096 8.419 7.206 9.412v-3.113a2.314 2.314 0 0 1-1.196-.031c-.556-.164-1.008-.535-1.344-1.099-.214-.36-.593-.753-.988-.724l-.097-1.098c.856-.073 1.594.521 2.033 1.258.196.328.421.52.709.605.278.083.577.043.925-.08.088-.697.408-.958.649-1.327-2.452-.365-3.429-1.666-3.816-2.692-.514-1.364-.238-3.066.67-4.143.018-.021.05-.075.038-.113-.417-1.259.09-2.3.109-2.41.481.141.559-.143 2.089.786l.264.159c.111.066.075.028.186.019a7.787 7.787 0 0 1 1.97-.276h.006a8.021 8.021 0 0 1 2.002.284l.086.009c-.008-.002.024-.006.075-.037 1.911-1.158 1.842-.779 2.355-.946.019.111.519 1.169.106 2.411-.056.171 1.656 1.739.708 4.256-.388 1.026-1.365 2.328-3.816 2.693.314.48.692.734.69 1.722v3.886c4.109-.993 7.206-5 7.206-9.412 0-5.17-4.242-9.412-9.412-9.412z"/></symbol><symbol id="icon-telegram" viewBox="0 0 32 32"><path fill="#fea5bb" style="fill:var(--color2,#fea5bb)" d="M32 16c0 8.837-7.163 16-16 16S0 24.837 0 16 7.163 0 16 0s16 7.163 16 16z"/><path fill="#fff" style="fill:var(--color3,#fff)" d="m12.867 18.376-.317 4.169c.455 0 .651-.183.888-.401l2.13-1.901 4.414 3.018c.81.421 1.381.199 1.6-.696l2.897-12.673c.258-1.117-.433-1.554-1.221-1.28L6.226 14.698c-1.162.422-1.145 1.026-.198 1.301l4.355 1.264 10.114-5.907c.476-.295.909-.132.553.163l-8.182 6.856z"/></symbol><symbol id="icon-facebook" viewBox="0 0 32 32"><path fill="#fea5bb" style="fill:var(--color2,#fea5bb)" d="M16 32c8.837 0 16-7.163 16-16S24.837 0 16 0 0 7.163 0 16s7.163 16 16 16z"/><path fill="#fff" style="fill:var(--color3,#fff)" d="M20.446 15.981h-2.611V25.6H13.88v-9.619H12v-3.379h1.88v-2.187c0-1.564.739-4.014 3.991-4.014l2.929.012v3.281h-2.125c-.348 0-.839.176-.839.922v1.989h2.955l-.345 3.377z"/></symbol><symbol id="envelope" viewBox="0 0 43 32"><path d="M37.333 0h-32c-2.2 0-3.98 1.8-3.98 4l-.02 24c0 2.2 1.8 4 4 4h32c2.2 0 4-1.8 4-4V4c0-2.2-1.8-4-4-4zm-.8 8.5-14.14 8.84c-.64.4-1.48.4-2.12 0L6.133 8.5c-.5-.32-.8-.86-.8-1.44 0-1.34 1.46-2.14 2.6-1.44l13.4 8.38 13.4-8.38c1.14-.7 2.6.1 2.6 1.44 0 .58-.3 1.12-.8 1.44z"/></symbol><symbol id="telephone" viewBox="0 0 32 32"><path d="m27.419 20.852-4.202-.48a3.294 3.294 0 0 0-2.713.943l-3.044 3.044A24.888 24.888 0 0 1 6.559 13.458l3.06-3.06a3.293 3.293 0 0 0 .943-2.713l-.48-4.168A3.31 3.31 0 0 0 6.79.589H3.928C2.059.589.504 2.144.62 4.013c.877 14.126 12.174 25.407 26.284 26.284 1.869.116 3.424-1.439 3.424-3.308v-2.862c.016-1.671-1.241-3.077-2.911-3.275z"/></symbol><symbol id="user-name" viewBox="0 0 32 32"><path d="M16 16c4.42 0 8-3.58 8-8s-3.58-8-8-8-8 3.58-8 8 3.58 8 8 8zm0 4c-5.34 0-16 2.68-16 8v2c0 1.1.9 2 2 2h28c1.1 0 2-.9 2-2v-2c0-5.32-10.66-8-16-8z"/></symbol><symbol id="close" viewBox="0 0 32 32"><path d="M32 3.223 28.777 0 16 12.777 3.223 0 0 3.223 12.777 16 0 28.777 3.223 32 16 19.223 28.777 32 32 28.777 19.223 16 32 3.223z"/></symbol></defs></svg>